<svg xmlns="http://www.w3.org/2000/svg" xml:space="preserve" overflow="hidden" viewBox="0 0 1577 1576"><g fill-rule="evenodd"><path fill="#0069c1" d="M789 2v786H2l4.06-80.36C46.37 311.291 381.52 2 789 2"/><path fill="#e22033" d="M789 2c434.65 0 787 352.128 787 786.5 0 434.37-352.35 786.5-787 786.5S2 1222.87 2 788.5h787z"/><path fill="#fffdf9" d="m448 364 4.99-128h28.02L486 364ZM448 571l4.991 128h28.018L486 571ZM363 486l-128-4.991v-28.018L363 448ZM570 486l129-4.991V452.99L570 448ZM502.41 368.042l68.39-108.657 23.86 13.773-59.9 113.564ZM398.98 547.19l-59.9 113.564 23.856 13.773 68.399-108.657ZM368.29 430.833l-108.65-68.4 13.77-23.855 113.56 59.899ZM547.44 534.26l113.564 59.9 13.773-23.856-108.657-68.399ZM547.1 399.062l113.57-59.899 13.77 23.855-108.66 68.399ZM367.96 502.49l-108.656 68.4 13.773 23.856 113.564-59.9ZM399.56 386.384l-59.9-113.564 23.86-13.773 68.4 108.656ZM502.99 565.53l68.4 108.656 23.856-13.773-59.9-113.564Z"/><path fill="#0069c1" d="M327 473c0-77.32 62.68-140 140-140s140 62.68 140 140-62.68 140-140 140-140-62.68-140-140"/><path fill="#fffdf9" d="M353 473c0-62.96 51.04-114 114-114s114 51.04 114 114-51.04 114-114 114-114-51.039-114-114"/></g></svg>