<svg width="1577" height="1576" xmlns="http://www.w3.org/2000/svg" xmlns:xlink="http://www.w3.org/1999/xlink" xml:space="preserve" overflow="hidden"><g transform="translate(-1411 -449)"><g><path d="M2200 451 2200 1237 1413 1237 1417.06 1156.64C1457.37 760.291 1792.52 451 2200 451Z" fill="#0069C1" fill-rule="evenodd" fill-opacity="1"/><path d="M2200 451C2634.65 451 2987 803.128 2987 1237.5 2987 1671.87 2634.65 2024 2200 2024 1765.35 2024 1413 1671.87 1413 1237.5L1413 1237.5 2200 1237.5 2200 451Z" fill="#E22033" fill-rule="evenodd" fill-opacity="1"/><path d="M1859 813 1863.99 685 1892.01 685 1897 813Z" fill="#FFFDF9" fill-rule="evenodd" fill-opacity="1"/><path d="M0 128 4.99137 0 33.0088 0 38.0002 128Z" fill="#FFFDF9" fill-rule="evenodd" fill-opacity="1" transform="matrix(1 0 0 -1 1859 1148)"/><path d="M1774 935 1646 930.009 1646 901.991 1774 897Z" fill="#FFFDF9" fill-rule="evenodd" fill-opacity="1"/><path d="M0 129 4.99128 0 33.0089 0 38.0002 129Z" fill="#FFFDF9" fill-rule="evenodd" fill-opacity="1" transform="matrix(-1.83697e-16 -1 -1 1.83697e-16 2110 935)"/><path d="M1913.41 817.042 1981.8 708.385 2005.66 722.158 1945.76 835.722Z" fill="#FFFDF9" fill-rule="evenodd" fill-opacity="1"/><path d="M0 128.299 4.90732 0 32.4536 0 37.3609 128.299Z" fill="#FFFDF9" fill-rule="evenodd" fill-opacity="1" transform="matrix(0.866025 0.5 0.5 -0.866025 1745.83 1107.3)"/><path d="M1779.29 879.833 1670.64 811.433 1684.41 787.578 1797.97 847.477Z" fill="#FFFDF9" fill-rule="evenodd" fill-opacity="1"/><path d="M0 128.299 4.90732 0 32.4536 0 37.3609 128.299Z" fill="#FFFDF9" fill-rule="evenodd" fill-opacity="1" transform="matrix(0.5 -0.866025 -0.866025 -0.5 2069.55 1047.41)"/><path d="M1958.1 848.062 2071.67 788.163 2085.44 812.018 1976.78 880.417Z" fill="#FFFDF9" fill-rule="evenodd" fill-opacity="1"/><path d="M0 128.299 4.90732 0 32.4536 0 37.3609 128.299Z" fill="#FFFDF9" fill-rule="evenodd" fill-opacity="1" transform="matrix(0.5 0.866025 0.866025 -0.5 1667.85 1015.64)"/><path d="M1810.56 835.384 1750.66 721.82 1774.52 708.047 1842.92 816.703Z" fill="#FFFDF9" fill-rule="evenodd" fill-opacity="1"/><path d="M0 128.299 4.90732 0 32.4536 0 37.3609 128.299Z" fill="#FFFDF9" fill-rule="evenodd" fill-opacity="1" transform="matrix(0.866025 -0.5 -0.5 -0.866025 1978.14 1125.64)"/><path d="M1738 922C1738 844.68 1800.68 782 1878 782 1955.32 782 2018 844.68 2018 922 2018 999.32 1955.32 1062 1878 1062 1800.68 1062 1738 999.32 1738 922Z" fill="#0069C1" fill-rule="evenodd" fill-opacity="1"/><path d="M1764 922C1764 859.04 1815.04 808 1878 808 1940.96 808 1992 859.04 1992 922 1992 984.961 1940.96 1036 1878 1036 1815.04 1036 1764 984.961 1764 922Z" fill="#FFFDF9" fill-rule="evenodd" fill-opacity="1"/></g></g></svg>