<svg width="1577" height="1576" xmlns="http://www.w3.org/2000/svg" xmlns:xlink="http://www.w3.org/1999/xlink" xml:space="preserve" overflow="hidden"><g transform="translate(-1411 -449)"><g><rect x="1413" y="451" width="1574" height="1573" fill="#E22033" fill-opacity="1"/><rect x="1413" y="451" width="787" height="786" fill="#0069C1" fill-opacity="1"/><path d="M1784 719 1789.91 564 1823.09 564 1829 719Z" fill="#FFFDF9" fill-rule="evenodd" fill-opacity="1"/><path d="M0 156 5.91074 0 39.0893 0 45 156Z" fill="#FFFDF9" fill-rule="evenodd" fill-opacity="1" transform="matrix(1 0 0 -1 1784 1125)"/><path d="M1681 866 1526 860.089 1526 826.911 1681 821Z" fill="#FFFDF9" fill-rule="evenodd" fill-opacity="1"/><path d="M0 155 5.91082 0 39.0892 0 45 155Z" fill="#FFFDF9" fill-rule="evenodd" fill-opacity="1" transform="matrix(-1.83697e-16 -1 -1 1.83697e-16 2087 866)"/><path d="M1849.61 723.607 1932.37 592.133 1961.24 608.798 1888.76 746.21Z" fill="#FFFDF9" fill-rule="evenodd" fill-opacity="1"/><path d="M0 155.241 5.93786 0 39.269 0 45.2068 155.241Z" fill="#FFFDF9" fill-rule="evenodd" fill-opacity="1" transform="matrix(0.866025 0.5 0.5 -0.866025 1646.84 1074.82)"/><path d="M1687.33 799.584 1555.86 716.821 1572.53 687.955 1709.94 760.434Z" fill="#FFFDF9" fill-rule="evenodd" fill-opacity="1"/><path d="M0 155.241 5.93786 0 39.269 0 45.2068 155.241Z" fill="#FFFDF9" fill-rule="evenodd" fill-opacity="1" transform="matrix(0.5 -0.866025 -0.866025 -0.5 2038.54 1002.36)"/><path d="M1903.69 761.142 2041.1 688.663 2057.77 717.529 1926.3 800.292Z" fill="#FFFDF9" fill-rule="evenodd" fill-opacity="1"/><path d="M0 155.241 5.93786 0 39.269 0 45.2068 155.241Z" fill="#FFFDF9" fill-rule="evenodd" fill-opacity="1" transform="matrix(0.5 0.866025 0.866025 -0.5 1552.48 963.913)"/><path d="M1725.17 745.801 1652.69 608.389 1681.55 591.723 1764.32 723.198Z" fill="#FFFDF9" fill-rule="evenodd" fill-opacity="1"/><path d="M0 155.241 5.93786 0 39.269 0 45.2068 155.241Z" fill="#FFFDF9" fill-rule="evenodd" fill-opacity="1" transform="matrix(0.866025 -0.5 -0.5 -0.866025 1927.94 1097.01)"/><path d="M1637 850.5C1637 756.888 1712.89 681 1806.5 681 1900.11 681 1976 756.888 1976 850.5 1976 944.112 1900.11 1020 1806.5 1020 1712.89 1020 1637 944.112 1637 850.5Z" fill="#0069C1" fill-rule="evenodd" fill-opacity="1"/><path d="M1681 850.5C1681 781.188 1737.19 725 1806.5 725 1875.81 725 1932 781.188 1932 850.5 1932 919.812 1875.81 976 1806.5 976 1737.19 976 1681 919.812 1681 850.5Z" fill="#FFFDF9" fill-rule="evenodd" fill-opacity="1"/></g></g></svg>