<svg xmlns="http://www.w3.org/2000/svg" viewBox="0 0 200 133.312">
  <path d="m0 0 1.801-9.221h-7.229l-1.154 5.886.004-.002 2.453 1.396h-14.75l.244.485h4.734l4.728 9.221h6.15l-1.879-3.678-5.601-3.602H7.303L7.06 0H0zm9.495 7.523L1.508 2.18h-7.404l7.99 5.343h7.401zM-8.775-3.505l-2.918-5.716h-6.15l2.919 5.716h6.149z" style="fill:#005296;fill-opacity:1;fill-rule:evenodd;stroke:none" transform="matrix(4.41152 0 0 -4.41152 120.962 61.902)"/>
  <path d="M0 0a17.542 17.542 0 0 0-.359-.69c-4.636-8.439-16.924-15.304-27.353-15.283-9.88.02-14.641 6.214-11.174 14.04-2.632-6.469 1.436-11.559 9.586-11.559 8.318 0 19.127 5.531 22.744 13.492H0z" style="fill:#0094de;fill-opacity:1;fill-rule:evenodd;stroke:none" transform="matrix(4.41152 0 0 -4.41152 200 62.847)"/>
  <path d="M0 0c4.652 9.414 17.663 15.993 27.712 15.973 9.88-.02 14.64-6.214 11.174-14.04 2.632 6.469-1.436 11.558-9.586 11.558-8.318 0-19.127-5.53-22.744-13.491H0z" style="fill:#0094de;fill-opacity:1;fill-rule:evenodd;stroke:none" transform="matrix(4.41152 0 0 -4.41152 0 70.465)"/>
</svg>
