<svg xmlns="http://www.w3.org/2000/svg" viewBox="0 0 44.427 26.458">
  <path d="M.06 25.89C1.24 22.808 8.35 6.885 8.925 6.037c1.247-1.839 3.79-4.04 5.698-4.932 2.054-.962 4.87-1.448 4.6-.794-1.615 3.9-8.28 18.931-8.762 19.76-.817 1.406-3.25 3.727-4.917 4.69-1.379.796-3.915 1.618-4.991 1.618-.533 0-.64-.106-.493-.49zm18.25.152c-2.098-.733-3.054-2.382-2.878-4.965.112-1.633.618-2.983 4.308-11.455C23.79.322 23.947.02 24.703.012c1.99-.015 4.187 1.857 4.504 3.838.275 1.713-.225 3.144-4.596 13.2-4.464 10.269-4.107 9.759-6.3 8.992zm7.24-.535c3.97-9.316 8.24-18.8 8.894-19.749 1.099-1.597 3.356-3.548 5.158-4.46C41.11.534 44.118-.235 44.418.066c.318.316-8.259 19.617-9.357 21.06-2 2.626-5.489 4.754-8.423 5.137l-1.493.194z" style="display:inline;fill:#0081a0;fill-opacity:1;stroke-width:.280582"/>
</svg>
