<svg xmlns="http://www.w3.org/2000/svg" viewBox="0 0 23.505 26.458">
  <path fill="#8fc31f" d="m11.512 15.298-5.936-.002c-.77.009-1.217-.292-1.48-.783-.22-.41-.186-.823.11-1.287l.884-1.305a1.694 1.694 0 0 1 1.4-.748l1.474-.01a2.396 2.396 0 0 0 1.972-1.054l1.67-2.474H6.122c-1.783 0-3.062.641-4.157 2.259l-.966 1.419c-1.246 1.85-1.246 3.4-.438 5.055.703 1.438 2.275 2.473 4.355 2.475l2.183-.002L5.7 20.91c-.238.356-.37.774-.372 1.203v4.012c0 .329.426.458.61.186l6.326-9.371c.497-.752.083-1.643-.749-1.643" style="display:inline;stroke-width:.434543"/>
  <path fill="#0095d8" d="m11.994 11.16 5.934.003c.769-.009 1.217.292 1.48.781.22.413.187.825-.11 1.289l-.885 1.305a1.693 1.693 0 0 1-1.4.749l-1.474.009a2.387 2.387 0 0 0-1.97 1.052l-1.672 2.477h5.486c1.782 0 3.062-.642 4.157-2.26l.967-1.42c1.246-1.849 1.245-3.399.437-5.056-.701-1.436-2.122-2.473-4.356-2.473l-2.18.002 1.396-2.07c.24-.355.37-.775.372-1.202V.335c0-.33-.427-.46-.61-.187l-6.326 9.37c-.498.753-.084 1.643.75 1.643" style="display:inline;stroke-width:.434543"/>
</svg>
