<svg xmlns="http://www.w3.org/2000/svg" version="1.0" viewBox="0 0 141.269 76.61">
  <path style="fill:#db5426;overflow:visible" d="M359.308 163.735c1.028-1.723-.266-1.886-1.048-1.935-13.562-.335-24.81 7.862-32.57 14.608-.41.352-.042.833.393.543 8.87-6.065 15.572-7.348 26.38-8.587 2.832-.335 5.77-2.834 6.845-4.63M362.886 150.92c.908-1.784-.424-1.847-1.183-1.847-13.553.616-24.937 9.6-32.191 16.875-.381.381.032.856.406.515 7.632-7.04 15.329-8.699 26.038-10.674 2.794-.524 5.98-2.997 6.93-4.869M365.806 138.49c.852-1.817-.476-1.837-1.24-1.817-13.525 1.096-25.004 10.474-32 17.999-.36.407.04.822.433.502 7.774-6.395 14.994-9.152 25.63-11.5 2.776-.626 6.326-3.288 7.177-5.183M353.632 129.047c.704-2.147-1.798-1.543-2.883-.898-4.38 2.879-8.101 6.758-15.008 14.647-.367.42.05.79.444.475 6.008-4.817 10.205-6.106 12.953-7.915 2.378-1.565 3.838-4.351 4.494-6.31" transform="translate(-325.512 -110.401)"/>
  <path style="fill:#938874;overflow:visible" d="M407.438 178.875c-8.13-3.735-16.745-8.165-25.676-10.311-.46-.11-.573-.632.2-.658 5.353-.192 19.98 2.135 31.144 5.416 13.71 4.03 25.619 11.238 30.2 12.105.543.112.372.47 0 .541-11.05 3.407-25.248-2.212-35.868-7.093M412.305 165.009c-8.302-3.309-18.464-6.98-27.509-8.656-.458-.095-.601-.601.171-.66 5.325-.48 22.757 1.298 34.063 3.99 13.913 3.314 26.365 9.955 31.001 10.593.544.072.402.425.06.54-10.679 3.76-26.937-1.49-37.786-5.807M418.058 151.461c-8.56-2.637-20.897-6.003-30.028-6.959-.486-.069-.659-.55.115-.673 5.266-.91 23.358.115 34.837 1.893 14.112 2.2 28.997 9.14 33.663 9.414.544.032.428.395.086.53-10.278 4.915-27.51-.753-38.673-4.205M432.628 139.66c-8.56-2.635-19.064-4.782-33.32-5.858-.487-.034-.687-.572.087-.66 10.247-1.209 23.587-1.292 35.065.503 14.112 2.195 27.28 6.377 31.945 6.641.544.04.43.403.086.543-8.502 5.31-22.699 2.279-33.863-1.17" transform="translate(-325.512 -110.401)"/>
  <path style="fill:#db5426;overflow:visible" d="M356.718 124.988c-.31.175-.68-.272-.31-.523 5.461-3.87 38.034-26.585 79.082-4.623.344.177.2.687-.228.598-21.784-4.509-58.23-6.44-78.544 4.548" transform="translate(-325.512 -110.401)"/>
</svg>
