<svg xmlns="http://www.w3.org/2000/svg" viewBox="0 0 180 88.6">
  <path fill="#38B035" d="M.013 53.153 9.22 42.147c3.599-4.269 8.89-6.738 14.429-6.738h6.032c5.574 0 10.866-2.47 14.429-6.738L62.525 6.692A18.925 18.925 0 0 1 76.989-.046h61.983l-9.243 11.042c-3.563 4.269-8.855 6.738-14.464 6.738h-5.997c-5.574 0-10.83 2.47-14.429 6.738L76.39 46.451c-3.528 4.233-8.855 6.702-14.393 6.702H.013z"/>
  <path fill="#007AB0" d="m41.05 88.596 9.208-11.006c3.599-4.269 8.855-6.738 14.429-6.738h6.032c5.574 0 10.866-2.47 14.429-6.738l18.45-21.978c3.599-4.269 8.855-6.738 14.429-6.738h61.983l-9.208 11.006a18.925 18.925 0 0 1-14.464 6.738h-6.032c-5.574 0-10.83 2.47-14.429 6.738l-18.45 21.978a18.799 18.799 0 0 1-14.429 6.738H41.051z"/>
</svg>
