<svg xmlns="http://www.w3.org/2000/svg" viewBox="0 0 180 139.206">
  <path d="M217.6 745.1v.8c-.2 1.6-.9 3.1-2 4.5-2.9 3.6-8.6 6-15.1 6.1 6.9-1.2 11.9-5.2 11.9-10 0-5.7-7.2-10.4-16-10.4-.9 0-1.7 0-2.6.1l-.5-1.6-1.5-4.7c10.9 1.2 19.8 4.9 23.7 9.7l.1.1c1.1 1.4 1.8 2.8 2 4.4V744.7" style="fill:#953091" transform="matrix(4.2056 0 0 4.2056 -735.14 -3069.673)"/>
  <path d="M193.9 761.9c2.1.5 4.4.8 6.8 1.1l-4-12.4-2.8-.9v7c-7.7-.8-13.5-5.1-13.5-10.3 0-3.1 2.1-5.9 5.4-7.8 1.8-1 4-1.8 6.4-2.2-6.6 0-12.3 2.4-15.3 6l-.1.1c-1.1 1.4-1.8 3-2 4.6v1.6c.2 1.6.9 3.1 2 4.6l.1.1c3 3.7 9.2 6.8 17 8.5m17-16.8H208c-2.3 2.2-5.1 3.8-8.2 4.8l3.1 1c3.2-1.3 5.9-3.3 8-5.8zm-2.3-2.8h-3.8c-3.2 2.9-7.4 4.9-12 5.4l4.2 1.3c4.7-1 8.8-3.4 11.6-6.7zm-3.1-2.8h-4c-3.8 3.5-8.9 5.6-14.5 5.6-1.1 0-2.1-.1-3.2-.2l7 2.2c6-.6 11.3-3.4 14.7-7.6z" style="fill:#254ea1" transform="matrix(4.2056 0 0 4.2056 -735.14 -3069.673)"/>
</svg>
